HIERARCHY
ROOT Hips
{
	OFFSET 0.000000 0.000000 0.000000
	CHANNELS 6 Xposition Yposition Zposition Zrotation Yrotation Xrotation 
	JOINT LHipJoint
	{
		OFFSET 0.000000 0.000000 0.000000
		CHANNELS 3 Zrotation Yrotation Xrotation
		JOINT LeftUpLeg
		{
			OFFSET 1.363060 -1.794630 0.839290
			CHANNELS 3 Zrotation Yrotation Xrotation
			JOINT LeftLeg
			{
				OFFSET 2.448110 -6.726130 0.000000
				CHANNELS 3 Zrotation Yrotation Xrotation
				JOINT LeftFoot
				{
					OFFSET 2.562200 -7.039590 0.000000
					CHANNELS 3 Zrotation Yrotation Xrotation
					JOINT LeftToeBase
					{
						OFFSET 0.157640 -0.433110 2.322550
						CHANNELS 3 Zrotation Yrotation Xrotation
						End Site
						{
							OFFSET 0.000000 0.000000 0.000000
						}
					}
				}
			}
		}
	}
	JOINT RHipJoint
	{
		OFFSET 0.000000 0.000000 0.000000
		CHANNELS 3 Zrotation Yrotation Xrotation
		JOINT RightUpLeg
		{
			OFFSET -1.305520 -1.794630 0.839290
			CHANNELS 3 Zrotation Yrotation Xrotation
			JOINT RightLeg
			{
				OFFSET -2.542530 -6.985550 0.000000
				CHANNELS 3 Zrotation Yrotation Xrotation
				JOINT RightFoot
				{
					OFFSET -2.568260 -7.056230 0.000000
					CHANNELS 3 Zrotation Yrotation Xrotation
					JOINT RightToeBase
					{
						OFFSET -0.164730 -0.452590 2.363150
						CHANNELS 3 Zrotation Yrotation Xrotation
						End Site
						{
							OFFSET 0.000000 0.000000 0.000000
						}
					}
				}
			}
		}
	}
	JOINT LowerBack
	{
		OFFSET 0.000000 0.000000 0.000000
		CHANNELS 3 Zrotation Yrotation Xrotation
		JOINT Spine
		{
			OFFSET 0.028270 2.035590 -0.193380
			CHANNELS 3 Zrotation Yrotation Xrotation
			JOINT Spine1
			{
				OFFSET 0.056720 2.048850 -0.042750
				CHANNELS 3 Zrotation Yrotation Xrotation
				JOINT Neck
				{
					OFFSET 0.000000 0.000000 0.000000
					CHANNELS 3 Zrotation Yrotation Xrotation
					JOINT Neck1
					{
						OFFSET -0.054170 1.746240 0.172020
						CHANNELS 3 Zrotation Yrotation Xrotation
						JOINT Head
						{
							OFFSET 0.104070 1.761360 -0.123970
							CHANNELS 3 Zrotation Yrotation Xrotation
							End Site
							{
								OFFSET 0.000000 0.000000 0.000000
							}
						}
					}
				}
				JOINT LeftShoulder
				{
					OFFSET 0.000000 0.000000 0.000000
					CHANNELS 3 Zrotation Yrotation Xrotation
					JOINT LeftArm
					{
						OFFSET 3.362410 1.200890 -0.311210
						CHANNELS 3 Zrotation Yrotation Xrotation
						JOINT LeftForeArm
						{
							OFFSET 4.983000 -0.000000 -0.000000
							CHANNELS 3 Zrotation Yrotation Xrotation
							JOINT LeftHand
							{
								OFFSET 3.483560 -0.000000 -0.000000
								CHANNELS 3 Zrotation Yrotation Xrotation
								JOINT LeftFingerBase
								{
									OFFSET 0.000000 0.000000 0.000000
									CHANNELS 3 Zrotation Yrotation Xrotation
									JOINT LeftHandIndex1
									{
										OFFSET 0.715260 -0.000000 -0.000000
										CHANNELS 3 Zrotation Yrotation Xrotation
										End Site
										{
											OFFSET 0.000000 0.000000 0.000000
										}
									}
								}
								JOINT LThumb
								{
									OFFSET 0.000000 0.000000 0.000000
									CHANNELS 3 Zrotation Yrotation Xrotation
									End Site
									{
										OFFSET 0.000000 0.000000 0.000000
									}
								}
							}
						}
					}
				}
				JOINT RightShoulder
				{
					OFFSET 0.000000 0.000000 0.000000
					CHANNELS 3 Zrotation Yrotation Xrotation
					JOINT RightArm
					{
						OFFSET -3.136600 1.374050 -0.404650
						CHANNELS 3 Zrotation Yrotation Xrotation
						JOINT RightForeArm
						{
							OFFSET -5.241900 -0.000000 -0.000000
							CHANNELS 3 Zrotation Yrotation Xrotation
							JOINT RightHand
							{
								OFFSET -3.444170 -0.000000 -0.000000
								CHANNELS 3 Zrotation Yrotation Xrotation
								JOINT RightFingerBase
								{
									OFFSET 0.000000 0.000000 0.000000
									CHANNELS 3 Zrotation Yrotation Xrotation
									JOINT RightHandIndex1
									{
										OFFSET -0.622530 -0.000000 -0.000000
										CHANNELS 3 Zrotation Yrotation Xrotation
										End Site
										{
											OFFSET 0.000000 0.000000 0.000000
										}
									}
								}
								JOINT RThumb
								{
									OFFSET 0.000000 0.000000 0.000000
									CHANNELS 3 Zrotation Yrotation Xrotation
									End Site
									{
										OFFSET 0.000000 0.000000 0.000000
									}
								}
							}
						}
					}
				}
			}
		}
	}
}
MOTION
Frames: 12
Frame Time: 0.008333
15.106564 16.485156 -10.390609 -10.237838 8.661043 -10.054106 29.636130 10.777504 10.771394 -44.318521 -31.551951 -16.876522 15.266925 13.064537 67.991630 -0.593474 -12.652561 -52.984975 0.040100 -1.292900 -3.555100 -25.659787 -12.626240 -2.245091 66.265691 -2.161546 2.528353 -12.525028 -12.071317 48.006687 -2.487906 9.271448 -53.231971 -0.323300 -3.654500 10.106600 -2.468846 0.444532 -6.273211 29.055615 -9.965296 53.474447 -11.389825 -0.640135 -21.509379 -14.856461 -4.819979 -34.304347 7.717621 -5.950110 59.861980 3.748500 -2.224800 16.422100 2.996933 2.566464 2.370602 -101.338885 5.984870 19.463167 37.144097 -50.890694 -7.617882 4.230866 8.602775 -8.590301 26.271898 25.463257 6.615200 -7.125000 0.000000 0.000000 -6.686300 48.527300 -0.584200 -10.208219 -5.616805 0.671576 97.305624 1.381020 15.379205 -33.391071 45.556373 -6.008602 -2.958252 -1.304914 -14.302160 -22.719641 8.675613 -3.357100 7.125000 0.000000 0.000000 5.303900 -19.914900 3.193600 
15.121032 16.493772 -10.393372 -10.334900 8.214122 -10.053163 29.695937 10.679547 10.784403 -44.091143 -31.771691 -16.872956 15.059687 13.040260 68.200555 -1.230410 -14.109947 -52.645373 0.036400 -1.231500 -3.386100 -25.647452 -12.556440 -2.379599 66.315391 -2.231935 2.807311 -12.445691 -12.001531 47.698681 -2.321452 9.693980 -53.052034 -0.383300 -3.975900 11.009000 -2.509802 0.327539 -6.242288 29.201010 -10.116856 53.375677 -11.316031 -0.703952 -21.349647 -14.776140 -4.721576 -34.387551 7.510611 -5.713054 59.872623 3.751800 -2.174800 16.483300 2.992776 2.563482 2.373237 -101.493898 5.975852 19.749454 37.089724 -50.910861 -7.643899 4.415248 8.725949 -8.045462 26.941139 26.385744 7.101700 -7.125000 0.000000 0.000000 -6.363000 49.449300 -0.700600 -10.280237 -5.624672 0.677815 97.207387 1.514992 15.663116 -33.113071 45.240037 -5.905548 -3.009899 -1.382342 -14.799868 -22.870936 8.410897 -3.292800 7.125000 0.000000 0.000000 5.246400 -20.146400 3.131500 
15.131761 16.501493 -10.398330 -10.334326 7.773549 -10.009812 29.711687 10.603162 10.854017 -43.869245 -32.044858 -16.933772 14.860476 13.017607 68.354395 -1.868303 -15.501188 -52.235275 0.034600 -1.200000 -3.299300 -25.696532 -12.496648 -2.448355 66.422723 -2.112163 3.028550 -12.404222 -11.931496 47.442172 -2.222284 9.943047 -52.946913 -0.402800 -4.074400 11.286100 -2.412725 0.227800 -6.318921 28.821277 -10.130669 53.585156 -11.162820 -0.751208 -21.325524 -14.494568 -4.643430 -34.448202 7.327519 -5.596884 59.864964 3.689000 -2.149200 16.504100 3.052943 2.598576 2.354735 -101.482258 5.946805 19.944317 37.031616 -50.863519 -7.644852 4.596813 8.781150 -7.439959 27.514042 27.000664 7.478900 -7.125000 0.000000 0.000000 -6.045200 50.096900 -0.762000 -10.267541 -5.639770 0.644335 97.387040 1.773576 15.408875 -32.728802 44.915441 -5.772439 -3.228953 -1.166471 -14.267449 -23.993672 9.370990 -3.748300 7.125000 0.000000 0.000000 4.567000 -19.278200 2.812000 
15.139076 16.507020 -10.404426 -10.484655 7.286852 -9.970782 29.764884 10.530610 10.919003 -43.484150 -32.386082 -17.046028 14.626992 12.969291 68.501619 -2.642564 -17.125646 -51.748449 0.023200 -0.984200 -2.705500 -25.694812 -12.445416 -2.456858 66.644303 -1.919064 3.173501 -12.352111 -11.900467 47.285185 -2.135917 10.162746 -52.824981 -0.417700 -4.148600 11.495200 -2.222045 0.204870 -6.209546 28.668952 -10.122614 53.622101 -11.195096 -0.811386 -21.463058 -14.275605 -4.612095 -34.507436 7.234479 -5.588029 60.020882 3.624300 -2.145000 16.544300 3.081722 2.607422 2.359781 -101.414424 5.971647 20.179612 36.867154 -50.681342 -7.586150 4.708852 8.549128 -6.879431 27.596411 26.142034 7.243400 -7.125000 0.000000 0.000000 -5.794700 49.384900 -0.628400 -10.214446 -5.615733 0.645171 97.609698 1.706635 14.845307 -32.796765 45.048812 -5.790604 -3.215251 -1.055416 -13.155610 -24.085758 9.551033 -3.826700 7.125000 0.000000 0.000000 4.472700 -19.121200 2.769200 
15.153950 16.507346 -10.407434 -10.526948 6.681150 -10.024410 29.867335 10.397227 10.854190 -43.502348 -32.426876 -16.679454 14.386078 12.884664 68.448428 -3.329298 -18.660828 -51.424549 0.030500 -1.127200 -3.098900 -25.709019 -12.377087 -2.480922 66.626504 -1.921138 3.323218 -12.292454 -11.856177 47.214272 -1.939514 10.656683 -52.667898 -0.404700 -4.084300 11.313800 -2.066428 0.234604 -6.006831 28.536481 -10.085475 53.671423 -11.241491 -0.851864 -21.670619 -14.094603 -4.519301 -34.454607 7.076405 -5.464900 60.130447 3.575800 -2.107400 16.508500 3.080955 2.581363 2.367582 -101.346988 6.121666 20.457730 36.804866 -50.568599 -7.560797 4.735280 8.249765 -6.336914 27.343148 24.969586 6.816300 -7.125000 0.000000 0.000000 -5.733900 48.352300 -0.475600 -10.152130 -5.561648 0.668005 97.587910 1.328789 14.833500 -33.233349 45.454267 -5.940948 -3.013218 -1.162301 -13.222899 -23.077845 9.058374 -3.526800 7.125000 0.000000 0.000000 5.059900 -19.578200 3.083800 
15.174433 16.508077 -10.407678 -10.489040 6.061110 -10.000046 29.983083 10.287979 10.796636 -43.681792 -32.458477 -16.288950 14.141787 12.794768 68.283836 -3.899771 -20.040254 -51.250688 0.070300 -1.710000 -4.704900 -25.737084 -12.311268 -2.486667 66.564252 -1.816077 3.393922 -12.273670 -11.807869 47.215768 -1.773752 11.050872 -52.553260 -0.370300 -3.908600 10.819700 -1.964655 0.216350 -6.015921 28.417386 -10.061532 53.732889 -11.321271 -0.883862 -21.722169 -14.126326 -4.480271 -34.313893 7.196818 -5.478925 60.164144 3.618700 -2.083600 16.473300 3.092153 2.550028 2.370594 -101.219063 6.324360 20.863547 36.924840 -50.612269 -7.612167 4.740369 8.215205 -6.008249 27.272231 24.992289 6.815400 -7.125000 0.000000 0.000000 -5.766600 48.372200 -0.481200 -10.136779 -5.544270 0.670276 97.610711 1.265976 14.840878 -33.255289 45.447030 -5.933601 -2.871760 -1.357779 -13.501183 -22.286737 8.046739 -3.110800 7.125000 0.000000 0.000000 5.553700 -20.493900 3.273000 
15.194265 16.509296 -10.409791 -10.264450 5.382588 -10.037279 30.043744 10.149016 10.712299 -44.090494 -32.365980 -15.722756 13.931307 12.696997 67.992010 -4.427680 -21.256646 -50.981618 0.139800 -2.409600 -6.639000 -25.827232 -12.200371 -2.461743 66.499857 -1.491974 3.579609 -12.311353 -11.775774 47.294752 -1.704601 11.153242 -52.471569 -0.342000 -3.757700 10.395900 -1.767523 0.286303 -6.065093 27.787658 -9.842343 54.109633 -11.246167 -0.824698 -21.797906 -14.161988 -4.525520 -34.378147 7.506997 -5.682218 60.246789 3.678100 -2.102700 16.523900 3.168014 2.564985 2.352331 -101.100512 6.365951 21.382537 36.950282 -50.610341 -7.628543 4.715157 8.055447 -5.997678 27.127223 24.245506 6.548200 -7.125000 0.000000 0.000000 -5.727200 47.715900 -0.385000 -10.061031 -5.559417 0.636434 97.753284 1.340854 14.573999 -33.060020 45.301826 -5.888786 -2.954673 -1.480270 -13.482495 -22.773464 7.321501 -2.962200 7.125000 0.000000 0.000000 5.279200 -21.117400 3.035400 
15.217999 16.510841 -10.411173 -10.073055 4.654646 -10.182402 30.119816 9.985077 10.552116 -44.605400 -32.079017 -14.938801 13.758633 12.572214 67.629123 -4.942664 -22.358232 -50.638612 0.188600 -2.797300 -7.714800 -25.922320 -12.077488 -2.488019 66.333115 -1.422599 3.844907 -12.293098 -11.724914 47.315695 -1.495755 11.612124 -52.284809 -0.321300 -3.643700 10.076300 -1.480513 0.402608 -5.984712 27.168276 -9.599067 54.483483 -11.140282 -0.753358 -21.868068 -14.034035 -4.517033 -34.569555 7.487628 -5.689701 60.369806 3.659900 -2.101400 16.603600 3.240209 2.570363 2.344331 -101.172151 6.293813 21.605603 36.790197 -50.477479 -7.551061 4.622097 7.591676 -5.540323 26.365918 22.208071 5.738400 -7.125000 0.000000 0.000000 -5.909400 45.877500 -0.128400 -9.996741 -5.559387 0.613904 97.742028 1.194066 14.638205 -33.007066 45.204934 -5.884565 -3.170775 -1.291392 -14.320828 -23.813779 8.745787 -3.535600 7.125000 0.000000 0.000000 4.667700 -19.818200 2.818000 
15.241489 16.514905 -10.408653 -10.111436 3.974692 -10.126161 30.281457 9.880743 10.469198 -44.828429 -32.080235 -14.496014 13.555376 12.449354 67.340609 -5.492208 -23.550629 -50.342174 0.122300 -2.254200 -6.208600 -25.948628 -12.022634 -2.508137 66.269006 -1.417739 3.895789 -12.231422 -11.656818 47.275027 -1.213646 12.294688 -52.085055 -0.300800 -3.526400 9.748000 -1.331576 0.439406 -6.036242 27.277646 -9.577724 54.441974 -11.228053 -0.736262 -21.698293 -14.118179 -4.515469 -34.729550 7.403330 -5.592364 60.487897 3.681600 -2.086900 16.712700 3.243621 2.538899 2.357554 -101.269369 6.208465 21.923184 36.630777 -50.360121 -7.487274 4.596803 7.380965 -4.991000 25.967466 21.428526 5.417900 -7.125000 0.000000 0.000000 -6.052200 45.171100 -0.025700 -10.053098 -5.569240 0.623756 97.622691 1.137294 14.824617 -32.881414 44.998995 -5.853322 -3.353942 -1.268819 -14.687557 -24.770631 9.042873 -3.774000 7.125000 0.000000 0.000000 4.114100 -19.509600 2.510400 
15.259939 16.519294 -10.403939 -10.249477 3.291210 -9.934613 30.514808 9.799482 10.334136 -44.986826 -32.115993 -14.146538 13.376742 12.326109 67.046818 -5.951961 -24.550618 -50.120810 0.036900 -1.239100 -3.407000 -25.899045 -11.983597 -2.408224 66.440588 -0.974677 3.863242 -12.230872 -11.621807 47.300053 -1.113990 12.514371 -52.004049 -0.278900 -3.396900 9.385800 -1.558631 0.410325 -6.072145 27.974896 -9.762344 54.026789 -11.365420 -0.760093 -21.521268 -14.295938 -4.436666 -34.765894 7.294845 -5.356195 60.682679 3.753200 -2.027500 16.804400 3.157536 2.501406 2.389085 -101.258056 6.327895 22.433374 36.643744 -50.356772 -7.519571 4.688989 7.338293 -5.004598 26.402789 21.300990 5.486200 -7.125000 0.000000 0.000000 -5.719000 45.132900 -0.018800 -10.174087 -5.533792 0.673605 97.448527 1.092860 15.190178 -32.792554 44.881611 -5.899640 -3.592644 -1.540936 -14.222942 -26.369712 7.331744 -3.443700 7.125000 0.000000 0.000000 3.143300 -20.961400 1.813500 
15.278146 16.519781 -10.398574 -10.402181 2.675442 -9.866059 30.783951 9.719555 10.042495 -45.344614 -31.793658 -13.548467 13.283347 12.167790 66.633214 -6.118581 -25.012715 -50.167995 0.052300 -1.475100 -4.057100 -25.807727 -11.933017 -2.296288 66.565087 -0.548195 3.927388 -12.219744 -11.598239 47.358018 -0.990211 12.790121 -51.910893 -0.293700 -3.485100 9.632300 -2.060118 0.299304 -5.907105 28.861331 -10.093701 53.432656 -11.413564 -0.854077 -21.482307 -14.268253 -4.181707 -34.575147 6.950998 -4.865844 60.866303 3.789100 -1.900600 16.781300 3.031593 2.439504 2.447102 -101.437696 6.689525 22.279926 36.711605 -50.359224 -7.545527 4.724483 7.186833 -5.005508 26.586387 20.650008 5.337400 -7.125000 0.000000 0.000000 -5.477600 44.614600 0.052300 -10.308359 -5.426238 0.740349 97.159046 0.858387 16.028319 -32.846326 44.758934 -5.898097 -3.756656 -1.212405 -14.170113 -27.237708 9.199738 -4.233000 7.125000 0.000000 0.000000 2.627100 -19.230300 1.617000 
15.300823 16.516368 -10.391015 -10.344062 2.026370 -9.858980 30.998381 9.669294 9.757214 -45.966388 -31.244790 -12.795264 13.246620 11.996679 66.080139 -5.985411 -25.006793 -50.513974 0.190400 -2.810200 -7.750800 -25.807778 -11.897258 -2.254894 66.388345 -0.464303 4.008080 -12.172269 -11.518370 47.388850 -0.662851 13.565276 -51.739914 -0.308700 -3.572300 9.876300 -2.420922 0.226811 -5.862762 29.253196 -10.257758 53.168612 -11.380823 -0.888273 -21.429257 -14.257957 -4.002789 -34.339829 6.609710 -4.489037 60.865231 3.787400 -1.827000 16.685600 2.943937 2.370764 2.482337 -101.695536 7.056414 21.945117 36.876352 -50.484644 -7.603423 4.641530 7.258222 -4.842826 26.243032 21.039481 5.383300 -7.125000 0.000000 0.000000 -5.759400 44.901700 0.014000 -10.403207 -5.363706 0.783600 96.903606 0.663612 16.828197 -32.762821 44.608453 -5.971974 -3.940245 -1.848828 -15.352210 -28.417892 6.211611 -3.310700 7.125000 0.000000 0.000000 1.939400 -21.864800 1.078300 
